<?xml version="1.0" encoding="UTF-8"?>
<svg width="18px" height="18px" viewBox="0 0 18 18" version="1.1" xmlns="http://www.w3.org/2000/svg" xmlns:xlink="http://www.w3.org/1999/xlink">
    <title>编组 3</title>
    <defs>
        <linearGradient x1="88.6279961%" y1="8.18446108%" x2="29.4642695%" y2="84.1502179%" id="linearGradient-1">
            <stop stop-color="#B15AD4" offset="0%"></stop>
            <stop stop-color="#4447C3" stop-opacity="0.96" offset="100%"></stop>
        </linearGradient>
    </defs>
    <g id="karpor12月交互设计稿" stroke="none" stroke-width="1" fill="none" fill-rule="evenodd">
        <g id="编组-3">
            <rect id="矩形" fill="#000000" fill-rule="nonzero" opacity="0" x="0" y="0" width="18" height="18"></rect>
            <path d="M15.21,10.431 C14.967,10.431 14.751,10.575 14.661,10.809 C13.86,13.167 11.619,14.877 9,14.877 C6.588,14.877 4.509,13.428 3.564,11.367 C4.113,11.097 4.482,10.539 4.482,9.891 C4.482,8.982 3.744,8.244 2.835,8.244 C1.926,8.244 1.188,8.982 1.188,9.891 C1.188,10.629 1.683,11.259 2.358,11.466 C3.393,14.121 5.976,16.02 9.009,16.02 C12.141,16.02 14.814,13.995 15.768,11.169 C15.885,10.818 15.597,10.431 15.21,10.431 Z M2.835,9.423 C3.105,9.423 3.33,9.648 3.33,9.918 C3.33,10.188 3.105,10.413 2.835,10.413 C2.565,10.413 2.34,10.188 2.34,9.918 C2.34,9.648 2.565,9.423 2.835,9.423 Z M15.642,6.3 C14.607,3.663 12.024,1.773 9,1.773 C5.868,1.773 3.195,3.807 2.241,6.624 C2.124,6.993 2.403,7.38 2.799,7.38 C3.042,7.38 3.258,7.236 3.348,7.002 C4.149,4.644 6.39,2.934 9.009,2.934 C11.403,2.934 13.464,4.347 14.418,6.381 C13.86,6.651 13.473,7.209 13.473,7.866 C13.473,8.775 14.211,9.513 15.12,9.513 C16.029,9.513 16.767,8.775 16.767,7.866 C16.767,7.128 16.29,6.516 15.642,6.3 Z M15.111,8.361 C14.841,8.361 14.616,8.136 14.616,7.866 C14.616,7.596 14.841,7.371 15.111,7.371 C15.39,7.371 15.606,7.596 15.606,7.866 C15.606,8.136 15.381,8.361 15.111,8.361 Z M8.271,5.4 C8.136,4.833 7.272,4.833 7.119,5.4 L5.427,11.988 C5.355,12.285 5.544,12.564 5.85,12.636 C6.165,12.699 6.471,12.528 6.543,12.24 L6.885,10.944 L8.496,10.944 L8.838,12.24 C8.91,12.537 9.216,12.699 9.531,12.636 C9.846,12.573 10.035,12.285 9.954,11.988 L8.271,5.4 Z M7.164,10.017 L7.704,7.794 L8.244,10.008 L7.164,10.017 L7.164,10.017 Z M11.583,4.986 C11.259,4.986 11.007,5.229 11.007,5.526 L11.007,12.123 C11.007,12.42 11.268,12.663 11.583,12.663 C11.907,12.663 12.159,12.42 12.159,12.123 L12.159,5.526 C12.159,5.229 11.898,4.986 11.583,4.986 Z" id="形状" fill="url(#linearGradient-1)"></path>
        </g>
    </g>
</svg>